<svg xmlns="http://www.w3.org/2000/svg" xmlns:xlink="http://www.w3.org/1999/xlink" width="26" height="26" fill="none" viewBox="0 0 26 26"><clipPath id="a"><path d="m0 0h26v26h-26z"/></clipPath><g clip-path="url(#a)"><path fill="#0075ff" d="m13 26c7.1797 0 13-5.8203 13-13s-5.8203-13-13-13-13 5.8203-13 13 5.8203 13 13 13z" opacity=".15"/><rect width="13.333" height="13.333" x="6.333" y="6.333" stroke="#0075ff" stroke-width="1.5" rx="2"/><path fill="#0075ff" fill-rule="evenodd" d="m11.75 9c.1917 0 .364.12989.4352.32797l2.0648 5.74553.8148-2.2673c.0711-.1981.2435-.3279.4352-.3279h2.0312c.2589 0 .4688.2336.4688.5217s-.2099.5217-.4688.5217h-1.7138l-1.1322 3.1503c-.0711.1981-.2435.328-.4352.328s-.364-.1299-.4352-.328l-2.0648-5.7454-.8148 2.2672c-.0712.1981-.2435.3279-.4352.3279h-2.03125c-.25888 0-.46875-.2336-.46875-.5217s.20987-.5217.46875-.5217h1.71385l1.1322-3.15033c.0712-.19808.2435-.32797.4352-.32797z" clip-rule="evenodd"/></g></svg>